<svg role="img" viewBox="0 0 24 24" fill="black" xmlns="http://www.w3.org/2000/svg">
<title>GitHub</title>
<path d="M12 0C5.371 0 0 5.372 0 12c0 5.301 3.438 9.799 8.205 11.387.6.111.82-.261.82-.578 0-.285-.011-1.04-.017-2.042-3.338.724-4.042-1.613-4.042-1.613-.546-1.387-1.333-1.756-1.333-1.756-1.089-.744.083-.729.083-.729 1.205.085 1.84 1.238 1.84 1.238 1.07 1.835 2.809 1.305 3.495.997.108-.775.419-1.305.762-1.605-2.665-.303-5.466-1.334-5.466-5.931 0-1.31.469-2.381 1.236-3.221-.124-.303-.535-1.523.117-3.176 0 0 1.008-.322 3.301 1.23.958-.266 1.984-.399 3.003-.404 1.019.005 2.045.138 3.004.404 2.291-1.552 3.297-1.23 3.297-1.23.653 1.653.242 2.873.118 3.176.77.84 1.235 1.911 1.235 3.221 0 4.609-2.803 5.625-5.475 5.921.43.371.823 1.102.823 2.222 0 1.606-.014 2.898-.014 3.293 0 .32.216.694.825.576C20.565 21.796 24 17.299 24 12c0-6.628-5.372-12-12-12z"/>
</svg>